Coordinates
version=1
nRows=9
nColumns=36
inDegrees=yes

Units are S.I. units (second, meters, Newtons, ...)
If the header above contains a line with 'inDegrees', this indicates whether rotational values are in degrees (yes) or radians (no).

endheader
time	pelvis_tilt	pelvis_list	pelvis_rotation	pelvis_tx	pelvis_ty	pelvis_tz	hip_flexion_r	hip_adduction_r	hip_rotation_r	knee_angle_r	knee_angle_r_beta	ankle_angle_r	subtalar_angle_r	mtp_angle_r	hip_flexion_l	hip_adduction_l	hip_rotation_l	knee_angle_l	knee_angle_l_beta	ankle_angle_l	subtalar_angle_l	mtp_angle_l	lumbar_extension	lumbar_bending	lumbar_rotation	arm_flex_r	arm_add_r	arm_rot_r	elbow_flex_r	pro_sup_r	arm_flex_l	arm_add_l	arm_rot_l	elbow_flex_l	pro_sup_l
      2.16000000	     -7.79547155	     -2.35045882	     -1.80366732	     -0.48922840	      1.12280568	     -0.57965966	     32.74837334	     -1.54937422	      2.79819595	     18.55216551	      0.32379637	    -27.26510656	    -10.01437750	     -5.25499033	     30.91718699	     -5.98914190	      0.65468884	     13.22560288	      0.23083032	    -28.79270223	     -2.77329952	     -5.25499033	    -23.17145131	      1.34814775	      0.96251674	     -5.47639928	    -25.66380391	    -12.46116073	     99.57046944	    111.58554549	     -5.73335772	    -21.07213521	     -1.53879302	     96.64815232	     96.63320937
      2.17000000	     -6.79397334	     -2.31422619	     -1.94758360	     -0.47606574	      1.10178322	     -0.57954809	     31.45592411	     -1.63760227	      3.00801786	     17.99685986	      0.31410446	    -27.21764150	    -10.19850450	     -5.26584502	     29.63667503	     -6.15504718	      0.71214656	     12.36841104	      0.21586950	    -29.24586457	     -2.35887166	     -5.26584502	    -23.42675640	      1.25478910	      0.97449265	     -6.90310564	    -25.68427127	    -13.40832581	    101.02080590	    111.78641331	     -7.24232047	    -20.97623175	     -2.65194290	     97.65188400	     96.77373941
      2.18000000	     -5.91628856	     -2.31751670	     -2.12384934	     -0.46328251	      1.07966688	     -0.57941458	     30.51647280	     -1.67088653	      3.23409143	     17.90813484	      0.31255592	    -27.19839037	    -10.14648179	     -5.29804326	     28.70182389	     -6.36691764	      0.76566548	     12.06691740	      0.21060744	    -29.48623523	     -2.09630313	     -5.29804326	    -23.58511091	      1.18128665	      1.02226305	     -8.06297341	    -25.69592464	    -14.10478093	    102.38590010	    111.69128439	     -8.49434160	    -20.84230013	     -3.44937156	     98.55547686	     96.72880075
      2.19000000	     -5.07985201	     -2.37142969	     -2.36208878	     -0.45103752	      1.05654233	     -0.57919350	     29.88283913	     -1.60114795	      3.51327631	     18.34554529	      0.32019017	    -27.04796745	     -9.98671708	     -5.35280619	     28.04799009	     -6.63193486	      0.86306829	     12.40107405	      0.21643957	    -29.42579101	     -2.10349075	     -5.35280619	    -23.80504667	      1.14201835	      1.14215112	     -8.97943509	    -25.73290401	    -14.69468070	    103.79715682	    111.35017350	     -9.48108422	    -20.62620069	     -4.17063746	     99.40339767	     96.49107330
      2.20000000	     -4.26961346	     -2.42934201	     -2.65252019	     -0.43932261	      1.03233245	     -0.57889372	     29.57087688	     -1.49234583	      3.71474834	     19.41157023	      0.33879581	    -26.64650155	     -9.94948117	     -5.42717500	     27.64504437	     -6.90361881	      1.01160462	     13.27591106	      0.23170836	    -29.41350803	     -2.25522440	     -5.42717500	    -24.09071092	      1.09292761	      1.31477704	     -9.63736779	    -25.75516664	    -15.21216963	    105.24299332	    110.86548093	    -10.20751267	    -20.35550087	     -4.81469363	    100.17795016	     96.11671066
      2.21000000	     -3.53309847	     -2.49046179	     -2.93342137	     -0.42826378	      1.00693978	     -0.57853894	     29.62262507	     -1.37312052	      3.87359368	     20.95127079	      0.36566866	    -26.69484299	     -9.71716787	     -5.48895741	     27.53877627	     -7.17989452	      1.28006151	     14.42530860	      0.25176913	    -30.01734822	     -2.10149400	     -5.48895741	    -24.37709702	      1.04225321	      1.44264452	     -9.85918305	    -25.83175529	    -15.44034981	    106.52925447	    110.24236827	    -10.61012790	    -20.19793619	     -5.22009839	    100.72017880	     95.68052024
      2.22000000	     -2.83469345	     -2.33517543	     -3.11203987	     -0.41780938	      0.98055052	     -0.57847079	     29.97475254	     -1.58243939	      3.72518612	     22.76122299	      0.39725828	    -27.08868885	     -9.83045265	     -5.56590611	     27.75152551	     -7.15806262	      1.48482803	     16.21151608	      0.28294433	    -30.11452734	     -2.86572484	     -5.56590611	    -24.84290865	      0.80184779	      1.44149288	    -10.08339591	    -25.74243613	    -15.86002027	    108.12357554	    109.63528923	    -10.81824447	    -19.89015686	     -5.79476897	    101.41161365	     95.21761957
      2.23000000	     -2.49321128	     -2.21579005	     -3.20155546	     -0.40851986	      0.95280880	     -0.57852152	     31.06384083	     -1.68923147	      3.51108026	     25.69333433	      0.44843328	    -24.87381519	    -11.39583826	     -5.91222939	     28.85413187	     -6.93866998	      2.41404913	     20.14238751	      0.35155098	    -24.35485779	     -5.41517533	     -5.91222939	    -25.05270118	      0.65601240	      1.58551434	    -10.11075806	    -25.58711078	    -16.63762272	    109.23970328	    111.80265926	    -10.32736430	    -19.72670514	     -5.77945303	    101.33147531	     95.76574974
      2.24000000	     -2.39883276	     -2.02954646	     -3.24807242	     -0.40036747	      0.92362835	     -0.57866654	     33.03272746	     -1.81172267	      2.83214353	     31.05630520	      0.54203478	    -15.71892682	    -13.53576008	     -6.17925257	     31.02609916	     -6.46206824	      3.20184275	     26.88777353	      0.46928018	    -12.04843999	     -8.38820721	     -6.17925257	    -25.17729015	      0.48783412	      1.25109457	     -9.41512294	    -25.68441940	    -16.17473190	    110.61797962	    107.23573592	    -10.00442143	    -19.68844682	     -5.84016637	    101.83145058	     92.91628295
